<svg width="512" height="512" viewBox="0 0 512 512" xmlns="http://www.w3.org/2000/svg">
  <defs>
    <linearGradient id="bg" x1="0%" y1="0%" x2="100%" y2="100%">
      <stop offset="0%" style="stop-color:#3B82F6;stop-opacity:1" />
      <stop offset="100%" style="stop-color:#1E40AF;stop-opacity:1" />
    </linearGradient>
    <linearGradient id="slide" x1="0%" y1="0%" x2="100%" y2="100%">
      <stop offset="0%" style="stop-color:#FFFFFF;stop-opacity:1" />
      <stop offset="100%" style="stop-color:#F8FAFC;stop-opacity:1" />
    </linearGradient>
  </defs>
  
  <!-- Background circle -->
  <circle cx="256" cy="256" r="240" fill="url(#bg)" stroke="#1E40AF" stroke-width="8"/>
  
  <!-- Slide stack -->
  <g transform="translate(256, 256)">
    <!-- Slide 1 (back) -->
    <rect x="-80" y="-60" width="160" height="120" rx="8" fill="url(#slide)" stroke="#E2E8F0" stroke-width="2" transform="rotate(-2)"/>
    
    <!-- Slide 2 (middle) -->
    <rect x="-80" y="-60" width="160" height="120" rx="8" fill="url(#slide)" stroke="#E2E8F0" stroke-width="2" transform="rotate(-1)"/>
    
    <!-- Slide 3 (front) -->
    <rect x="-80" y="-60" width="160" height="120" rx="8" fill="url(#slide)" stroke="#CBD5E1" stroke-width="2"/>
    
    <!-- Content on front slide -->
    <g fill="#64748B">
      <!-- Title bar -->
      <rect x="-70" y="-50" width="140" height="8" rx="4"/>
      <!-- Content lines -->
      <rect x="-70" y="-35" width="100" height="4" rx="2"/>
      <rect x="-70" y="-28" width="120" height="4" rx="2"/>
      <rect x="-70" y="-21" width="80" height="4" rx="2"/>
      <rect x="-70" y="-14" width="110" height="4" rx="2"/>
      
      <!-- Bullet points -->
      <circle cx="-60" cy="-5" r="2"/>
      <rect x="-55" y="-7" width="60" height="3" rx="1.5"/>
      <circle cx="-60" cy="2" r="2"/>
      <rect x="-55" y="0" width="70" height="3" rx="1.5"/>
      <circle cx="-60" cy="9" r="2"/>
      <rect x="-55" y="7" width="50" height="3" rx="1.5"/>
    </g>
    
    <!-- Search/magnifying glass -->
    <g transform="translate(60, -40)">
      <circle cx="0" cy="0" r="12" fill="none" stroke="#3B82F6" stroke-width="3"/>
      <line x1="8" y1="8" x2="16" y2="16" stroke="#3B82F6" stroke-width="3" stroke-linecap="round"/>
    </g>
  </g>
</svg>








